<svg width="25px" height="28px" viewBox="0 0 25 28" fill="none" xmlns="http://www.w3.org/2000/svg">
<path d="M5.55556 19.4444H15.2778V22.2222H5.55556V19.4444ZM5.55556 13.8889H19.4444V16.6667H5.55556V13.8889ZM5.55556 8.33333H19.4444V11.1111H5.55556V8.33333ZM22.2222 2.77778H16.4167C15.8333 1.16667 14.3056 0 12.5 0C10.6944 0 9.16667 1.16667 8.58333 2.77778H2.77778C2.58333 2.77778 2.40278 2.79167 2.22222 2.83333C1.77988 2.92614 1.36672 3.12507 1.01832 3.41298C0.669918 3.7009 0.396711 4.06918 0.222222 4.48611C0.0833334 4.80556 0 5.16667 0 5.55556V25C0 25.375 0.0833334 25.75 0.222222 26.0833C0.361111 26.4167 0.569444 26.7083 0.819444 26.9722C1.19444 27.3472 1.68056 27.625 2.22222 27.7361C2.40278 27.7639 2.58333 27.7778 2.77778 27.7778H22.2222C23.75 27.7778 25 26.5278 25 25V5.55556C25 4.02778 23.75 2.77778 22.2222 2.77778ZM12.5 2.43056C13.0694 2.43056 13.5417 2.90278 13.5417 3.47222C13.5417 4.04167 13.0694 4.51389 12.5 4.51389C11.9306 4.51389 11.4583 4.04167 11.4583 3.47222C11.4583 2.90278 11.9306 2.43056 12.5 2.43056ZM22.2222 25H2.77778V5.55556H22.2222V25Z" fill="#3787C0"/>
</svg>
