<svg width="25px" height="25px" viewBox="0 0 25 25" fill="none" xmlns="http://www.w3.org/2000/svg">
<path d="M1.24976 13.7501H2.49979V22.5C2.49979 23.8788 3.62106 25 4.99984 25H20.0002C21.3789 25 22.5002 23.8788 22.5002 22.5V13.7501H23.7502C23.9974 13.7501 24.2391 13.6767 24.4446 13.5394C24.6501 13.402 24.8103 13.2068 24.9049 12.9784C24.9995 12.7501 25.0242 12.4988 24.976 12.2563C24.9278 12.0139 24.8088 11.7912 24.634 11.6164L13.3838 0.366498C13.2678 0.250317 13.13 0.158145 12.9784 0.0952576C12.8267 0.0323698 12.6642 0 12.5 0C12.3358 0 12.1733 0.0323698 12.0216 0.0952576C11.87 0.158145 11.7322 0.250317 11.6162 0.366498L0.365991 11.6164C0.191226 11.7912 0.0722153 12.0139 0.0240049 12.2563C-0.0242056 12.4988 0.0005487 12.7501 0.0951383 12.9784C0.189728 13.2068 0.349906 13.402 0.555422 13.5394C0.760939 13.6767 1.00257 13.7501 1.24976 13.7501ZM9.99995 22.5V16.2501H15.0001V22.5H9.99995ZM12.5 3.01772L20.0002 10.5176V16.2501L20.0014 22.5H17.5001V16.2501C17.5001 14.8714 16.3788 13.7501 15.0001 13.7501H9.99995C8.62117 13.7501 7.49989 14.8714 7.49989 16.2501V22.5H4.99984V10.5176L12.5 3.01772Z" fill="#34404A"/>
</svg>
