<svg width="25" height="27" viewBox="0 0 25 27" fill="none" xmlns="http://www.w3.org/2000/svg">
<path d="M1 6.55556H23.2222M21.8333 6.55556L20.6292 23.4194C20.5793 24.1203 20.2657 24.7761 19.7515 25.255C19.2374 25.7338 18.5609 26 17.8583 26H6.36389C5.66131 26 4.98481 25.7338 4.47067 25.255C3.95653 24.7761 3.64294 24.1203 3.59306 23.4194L2.38889 6.55556H21.8333ZM9.33333 12.1111V20.4444V12.1111ZM14.8889 12.1111V20.4444V12.1111ZM16.2778 6.55556V2.38889C16.2778 2.02053 16.1314 1.66726 15.871 1.4068C15.6105 1.14633 15.2572 1 14.8889 1H9.33333C8.96498 1 8.61171 1.14633 8.35124 1.4068C8.09077 1.66726 7.94444 2.02053 7.94444 2.38889V6.55556H16.2778Z" stroke="#ED6A6A" stroke-width="2" stroke-linecap="round" stroke-linejoin="round"/>
</svg>
