<svg width="25px" height="25px" viewBox="0 0 25 25" fill="none" xmlns="http://www.w3.org/2000/svg">
<path d="M5.35693 5.35718H7.14265V8.92861H5.35693V5.35718ZM5.35693 10.7143H7.14265V14.2857H5.35693V10.7143ZM10.7141 5.35718H12.4998V8.92861H10.7141V5.35718ZM10.7141 10.7143H12.4998V14.2857H10.7141V10.7143ZM5.35693 16.0715H7.14265V19.6429H5.35693V16.0715ZM10.7141 16.0715H12.4998V19.6429H10.7141V16.0715Z" fill="#34404A"/>
<path d="M25 10.7143C25 10.2407 24.8119 9.78648 24.477 9.4516C24.1421 9.11671 23.6879 8.92857 23.2143 8.92857H17.8571V1.78571C17.8571 1.31211 17.669 0.85791 17.3341 0.523023C16.9992 0.188137 16.545 0 16.0714 0H1.78571C1.31211 0 0.85791 0.188137 0.523023 0.523023C0.188137 0.85791 0 1.31211 0 1.78571V25H25V10.7143ZM1.78571 1.78571H16.0714V23.2143H1.78571V1.78571ZM17.8571 23.2143V10.7143H23.2143V23.2143H17.8571Z" fill="#34404A"/>
</svg>
