<svg width="24" height="24" viewBox="0 0 24 24" fill="none" xmlns="http://www.w3.org/2000/svg">
<path d="M13.2222 17.5V18.875C13.2222 19.969 12.8359 21.0182 12.1483 21.7918C11.4606 22.5654 10.528 23 9.55556 23H4.66667C3.69421 23 2.76158 22.5654 2.07394 21.7918C1.38631 21.0182 1 19.969 1 18.875V5.125C1 4.03098 1.38631 2.98177 2.07394 2.20818C2.76158 1.4346 3.69421 1 4.66667 1H9.55556C10.528 1 11.4606 1.4346 12.1483 2.20818C12.8359 2.98177 13.2222 4.03098 13.2222 5.125V6.5M18.1111 17.5L23 12L18.1111 17.5ZM23 12L18.1111 6.5L23 12ZM23 12H5.88889H23Z" stroke="#F2F2F2" stroke-width="2" stroke-linecap="round" stroke-linejoin="round"/>
</svg>
