<svg width="27" height="27" viewBox="0 0 27 27" fill="none" xmlns="http://www.w3.org/2000/svg">
<path d="M13.5 1C6.59625 1 1 6.59625 1 13.5C1 20.4037 6.59625 26 13.5 26C20.4037 26 26 20.4037 26 13.5C26 6.59625 20.4037 1 13.5 1Z" stroke="#F2F2F2" stroke-width="1.5625" stroke-linecap="round" stroke-linejoin="round"/>
<path d="M3.83887 21.4325C3.83887 21.4325 6.62512 17.875 13.5001 17.875C20.3751 17.875 23.1626 21.4325 23.1626 21.4325H3.83887ZM13.5001 13.5C14.4947 13.5 15.4485 13.1049 16.1518 12.4017C16.855 11.6984 17.2501 10.7446 17.2501 9.75C17.2501 8.75544 16.855 7.80161 16.1518 7.09835C15.4485 6.39509 14.4947 6 13.5001 6C12.5056 6 11.5517 6.39509 10.8485 7.09835C10.1452 7.80161 9.75012 8.75544 9.75012 9.75C9.75012 10.7446 10.1452 11.6984 10.8485 12.4017C11.5517 13.1049 12.5056 13.5 13.5001 13.5V13.5Z" stroke="#F2F2F2" stroke-width="1.5625" stroke-linecap="round" stroke-linejoin="round"/>
</svg>