<svg width="25px" height="25px" viewBox="0 0 25 25" fill="none" xmlns="http://www.w3.org/2000/svg">
<path d="M12.5 0C10.0277 0 7.61099 0.733112 5.55538 2.10663C3.49976 3.48015 1.89761 5.43238 0.951511 7.71645C0.00541601 10.0005 -0.242126 12.5139 0.24019 14.9386C0.722505 17.3634 1.91301 19.5907 3.66117 21.3388C5.40933 23.087 7.63661 24.2775 10.0614 24.7598C12.4861 25.2421 14.9995 24.9946 17.2835 24.0485C19.5676 23.1024 21.5199 21.5002 22.8934 19.4446C24.2669 17.389 25 14.9723 25 12.5C25 9.18479 23.683 6.00537 21.3388 3.66116C18.9946 1.31696 15.8152 0 12.5 0ZM1.56251 12.5C1.59661 9.69007 2.71095 7.00107 4.6744 4.99067C6.63786 2.98027 9.29978 1.80273 12.1081 1.70225C14.9165 1.60177 17.6557 2.58607 19.7578 4.45101C21.86 6.31595 23.1636 8.91844 23.3984 11.7187H12.1016L4.92188 20.3672C3.86206 19.3488 3.01835 18.1273 2.44116 16.7756C1.86397 15.4239 1.56514 13.9698 1.56251 12.5ZM12.5 23.4375C10.2099 23.4363 7.97878 22.7118 6.125 21.3672L12.8359 13.2812H23.3984C23.201 16.0378 21.9674 18.6175 19.9456 20.5016C17.9238 22.3858 15.2636 23.4347 12.5 23.4375Z" fill="#3787C0"/>
</svg>
