<svg width="25px" height="21px" viewBox="0 0 25 21" fill="none" xmlns="http://www.w3.org/2000/svg">
<path d="M23.4375 20.75C23.4375 20.75 25 20.75 25 19.1875C25 17.625 23.4375 12.9375 17.1875 12.9375C10.9375 12.9375 9.375 17.625 9.375 19.1875C9.375 20.75 10.9375 20.75 10.9375 20.75H23.4375ZM10.9719 19.1875C10.9603 19.1859 10.9489 19.1838 10.9375 19.1813C10.9391 18.7688 11.1984 17.5719 12.125 16.4938C12.9875 15.4828 14.5031 14.5 17.1875 14.5C19.8703 14.5 21.3859 15.4844 22.25 16.4938C23.1766 17.5719 23.4344 18.7703 23.4375 19.1813L23.425 19.1844C23.4177 19.1856 23.4104 19.1866 23.4031 19.1875H10.9719V19.1875ZM17.1875 9.8125C18.0163 9.8125 18.8112 9.48326 19.3972 8.89721C19.9833 8.31116 20.3125 7.5163 20.3125 6.6875C20.3125 5.8587 19.9833 5.06384 19.3972 4.47779C18.8112 3.89174 18.0163 3.5625 17.1875 3.5625C16.3587 3.5625 15.5638 3.89174 14.9778 4.47779C14.3917 5.06384 14.0625 5.8587 14.0625 6.6875C14.0625 7.5163 14.3917 8.31116 14.9778 8.89721C15.5638 9.48326 16.3587 9.8125 17.1875 9.8125ZM21.875 6.6875C21.875 7.30307 21.7538 7.91261 21.5182 8.48133C21.2826 9.05004 20.9373 9.56679 20.5021 10.0021C20.0668 10.4373 19.55 10.7826 18.9813 11.0182C18.4126 11.2538 17.8031 11.375 17.1875 11.375C16.5719 11.375 15.9624 11.2538 15.3937 11.0182C14.825 10.7826 14.3082 10.4373 13.8729 10.0021C13.4377 9.56679 13.0924 9.05004 12.8568 8.48133C12.6212 7.91261 12.5 7.30307 12.5 6.6875C12.5 5.4443 12.9939 4.25201 13.8729 3.37294C14.752 2.49386 15.9443 2 17.1875 2C18.4307 2 19.623 2.49386 20.5021 3.37294C21.3811 4.25201 21.875 5.4443 21.875 6.6875V6.6875ZM10.8375 13.375C10.2125 13.1782 9.56818 13.0488 8.91562 12.9891C8.54896 12.9542 8.18082 12.937 7.8125 12.9375C1.5625 12.9375 0 17.625 0 19.1875C0 20.2297 0.520313 20.75 1.5625 20.75H8.15C7.91837 20.2622 7.80285 19.7274 7.8125 19.1875C7.8125 17.6094 8.40156 15.9969 9.51563 14.65C9.89531 14.1906 10.3375 13.7609 10.8375 13.375ZM7.6875 14.5C6.76274 15.8895 6.26319 17.5185 6.25 19.1875H1.5625C1.5625 18.7813 1.81875 17.5781 2.75 16.4938C3.60156 15.5 5.08125 14.5313 7.6875 14.5016V14.5ZM2.34375 7.46875C2.34375 6.22555 2.83761 5.03326 3.71669 4.15419C4.59576 3.27511 5.78805 2.78125 7.03125 2.78125C8.27445 2.78125 9.46674 3.27511 10.3458 4.15419C11.2249 5.03326 11.7187 6.22555 11.7188 7.46875C11.7188 8.71195 11.2249 9.90424 10.3458 10.7833C9.46674 11.6624 8.27445 12.1562 7.03125 12.1562C5.78805 12.1562 4.59576 11.6624 3.71669 10.7833C2.83761 9.90424 2.34375 8.71195 2.34375 7.46875V7.46875ZM7.03125 4.34375C6.20245 4.34375 5.40759 4.67299 4.82154 5.25904C4.23549 5.84509 3.90625 6.63995 3.90625 7.46875C3.90625 8.29755 4.23549 9.09241 4.82154 9.67846C5.40759 10.2645 6.20245 10.5937 7.03125 10.5938C7.86005 10.5937 8.65491 10.2645 9.24096 9.67846C9.82701 9.09241 10.1562 8.29755 10.1562 7.46875C10.1562 6.63995 9.82701 5.84509 9.24096 5.25904C8.65491 4.67299 7.86005 4.34375 7.03125 4.34375Z" fill="#34404A"/>
</svg>
